<?xml version="1.0" encoding="UTF-8" standalone="no"?>
<!DOCTYPE svg PUBLIC "-//W3C//DTD SVG 1.1//EN" "http://www.w3.org/Graphics/SVG/1.1/DTD/svg11.dtd">
<svg version="1.1" xmlns="http://www.w3.org/2000/svg" xmlns:xlink="http://www.w3.org/1999/xlink" preserveAspectRatio="xMidYMid meet" viewBox="0 0 640 640" width="640" height="640"><defs><path d="M50.37 121.64C48.96 118.16 41.91 100.77 29.22 69.47L11.94 351.45C9.8 404.88 8.62 434.56 8.38 440.5C7.99 450.32 11.62 459.83 18.31 466.48C23.05 471.2 46.76 494.81 89.44 537.29L199.73 539.87C245.09 490.1 270.29 462.44 275.33 456.91C281.48 450.16 284.68 440.9 284.14 431.44C282.77 407.31 275.9 286.65 263.53 69.47C248.86 100.44 240.71 117.65 239.08 121.09C239.08 121.09 168.21 107.87 145.15 108.79C126.2 111.36 89.31 107.64 50.37 121.64Z" id="a1IY0HgTjE"></path><path d="M120.45 303.28L60.04 303.28L49.31 274.49L120.45 303.28Z" id="bnQJG0rOu"></path><path d="M170.24 303.28L230.66 303.28L241.39 274.49L170.24 303.28Z" id="b1z1yqug4j"></path><path d="M144.39 370.89L253.53 336.04L242.7 358.86L250.11 451.7L187.99 516.16L100.22 514.62L37.53 449.85L44.37 358.56L35.25 336.04L144.39 370.89Z" id="b4wy4rEcCR"></path><path d="M50.37 121.64C48.96 118.16 41.91 100.77 29.22 69.47L11.94 351.45C9.8 404.88 8.62 434.56 8.38 440.5C7.99 450.32 11.62 459.83 18.31 466.48C23.05 471.2 46.76 494.81 89.44 537.29L199.73 539.87C245.09 490.1 270.29 462.44 275.33 456.91C281.48 450.16 284.68 440.9 284.14 431.44C282.77 407.31 275.9 286.65 263.53 69.47C248.86 100.44 240.71 117.65 239.08 121.09C239.08 121.09 168.21 107.87 145.15 108.79C126.2 111.36 89.31 107.64 50.37 121.64Z" id="eudK4LZWm"></path><path d="M144.39 370.89L253.53 336.04L242.7 358.86L250.11 451.7L187.99 516.16L100.22 514.62L37.53 449.85L44.37 358.56L35.25 336.04L144.39 370.89Z" id="f10PzVgt8C"></path><path d="M98.97 414.47L106.44 407.27L182.9 409.16L190.82 416.73" id="b2y3ki0cVP"></path><path d="M144.45 368.17L144.97 343.81" id="dqsajEqoh"></path><path d="M127.85 431.74L160.94 433.35" id="csMhzldcg"></path><path d="M50.37 121.64C52.95 130.84 54.39 135.95 54.68 136.97C54.68 136.97 117.75 129.34 141.8 131.77" id="f4ayasmi6D"></path><path d="M161.12 132.46L179.36 133.5" id="c1tquwZBs"></path><path d="M144.39 515.39L146.38 480.27" id="abnLFItNM"></path><path d="M326.14 261.07L311.23 215.37C320.7 217.56 325.96 218.77 327.02 219.02C327.02 219.02 296.29 134.32 293.81 116.6C294.28 121.8 296.62 147.79 300.83 194.58L284.2 198.41L321.8 279.91" id="brawrHKfP"></path><path d="M597.01 261.07L611.92 215.37C602.45 217.56 597.19 218.77 596.14 219.02C596.14 219.02 626.86 134.32 629.34 116.6C628.87 121.8 626.53 147.79 622.32 194.58L638.95 198.41L601.35 279.91" id="bGq56Mbn2"></path><path d="M343.18 335.71C332.92 330.34 325.1 316.87 323.82 300.05C323.73 298.91 323.04 289.83 322.95 288.7C321.6 271.02 327.83 254.66 337.88 246.49" id="cdZZouEN8"></path><path d="M579.97 335.71C590.24 330.34 598.05 316.87 599.34 300.05C599.42 298.91 600.12 289.83 600.2 288.7C601.44 272.54 596.33 257.49 587.78 248.77" id="eaMw98lJB"></path><path d="M338.35 242.77C339.61 257.6 345.9 331.79 357.23 465.32L402.74 533.89L522.49 533.89L565.84 465.89C579.23 323.79 586.67 244.84 588.16 229.05C588.16 229.05 582.06 70.06 460.25 69.49C435.87 104.15 344.45 63.21 338.35 242.77ZM515.5 517.46L481.39 474.75L437.74 474.75L409.13 517.46L367.65 457.18L364.21 331.76L411.59 355.76L461.34 304.91L509.31 359.33L559.15 337.62L555.22 452.9L515.5 517.46Z" id="annwi3aBv"></path><path d="M437.25 279.77C437.25 279.77 396.52 357.82 369.17 246.34C382.79 253.03 430.45 276.43 437.25 279.77Z" id="fvqtk4WAF"></path><path d="M483.65 279.77C483.65 279.77 524.38 357.82 551.73 246.34C538.11 253.03 490.46 276.43 483.65 279.77Z" id="b2ROT4UHjP"></path><path d="M515.55 517.43L481.41 474.76L437.72 474.76L409.09 517.43L367.6 457.16L364.18 331.69L411.6 355.73L461.36 304.93L509.33 359.36L559.15 337.64L555.2 452.89L515.55 517.43Z" id="b1VTJNU2st"></path><path d="M338.39 242.79C339.65 257.63 345.94 331.79 357.27 465.29L402.75 533.87L522.47 533.87L565.8 465.91C579.19 323.81 586.63 244.87 588.11 229.08C588.11 229.08 582.11 70.09 460.25 69.47C435.88 104.13 344.4 63.24 338.39 242.79Z" id="c37fzVD1hp"></path><path d="M515.55 517.43L481.41 474.76L437.72 474.76L409.09 517.43L367.6 457.16L364.18 331.69L411.6 355.73L461.36 304.93L509.33 359.36L559.15 337.64L555.2 452.89L515.55 517.43Z" id="a5Zc5vvAqx"></path><path d="M445 392.59L461.29 398.95L477.72 394.21" id="a6rpGOpwr"></path><path d="M423.83 455.96L433.76 443.29L487.5 443.29L496.98 455.96" id="kZLGGWF0C"></path><path d="M396.47 121.9C396.47 121.9 374.89 142.87 364.18 182.29" id="aaAuU5H8l"></path><path d="M406.89 111.33C406.89 111.33 416.72 103.93 421.46 102.66" id="b4MQolYXXb"></path><path d="M406.89 539.87C406.89 539.87 416.72 532.47 421.46 531.2" id="b2AnpqBHuQ"></path><path d="M437.25 279.77C437.25 279.77 396.52 357.82 369.17 246.34C382.79 253.03 430.45 276.43 437.25 279.77Z" id="a4L5Vxka4X"></path><path d="M483.65 279.77C483.65 279.77 524.38 357.82 551.73 246.34C538.11 253.03 490.46 276.43 483.65 279.77Z" id="ay9XTciJX"></path><path d="M326.14 261.07L311.23 215.37C320.7 217.56 325.96 218.77 327.02 219.02C327.02 219.02 296.29 134.32 293.81 116.6C294.28 121.8 296.62 147.79 300.83 194.58L284.2 198.41L321.8 279.91" id="i5WUTMrWKy"></path><path d="M343.18 335.71C332.92 330.34 325.1 316.87 323.82 300.05C323.73 298.91 323.04 289.83 322.95 288.7C321.6 271.02 327.83 254.66 337.88 246.49" id="a2UYk5skci"></path><path d="M597.01 261.07L611.92 215.37C602.45 217.56 597.19 218.77 596.14 219.02C596.14 219.02 626.86 134.32 629.34 116.6C628.87 121.8 626.53 147.79 622.32 194.58L638.95 198.41L601.35 279.91" id="aXBbQLyXM"></path><path d="M579.97 335.71C590.24 330.34 598.05 316.87 599.34 300.05C599.42 298.91 600.12 289.83 600.2 288.7C601.44 272.54 596.33 257.49 587.78 248.77" id="adBXBNWWO"></path><path d="M456.46 309.93L454.83 364.7" id="a1rCyokyES"></path></defs><g><g><g><use xlink:href="#a1IY0HgTjE" opacity="1" fill="#464747" fill-opacity="1"></use><g><use xlink:href="#a1IY0HgTjE" opacity="1" fill-opacity="0" stroke="#000000" stroke-width="1" stroke-opacity="0"></use></g></g><g><use xlink:href="#bnQJG0rOu" opacity="1" fill="#ffffff" fill-opacity="1"></use><g><use xlink:href="#bnQJG0rOu" opacity="1" fill-opacity="0" stroke="#000000" stroke-width="1" stroke-opacity="0"></use></g></g><g><use xlink:href="#b1z1yqug4j" opacity="1" fill="#ffffff" fill-opacity="1"></use><g><use xlink:href="#b1z1yqug4j" opacity="1" fill-opacity="0" stroke="#000000" stroke-width="1" stroke-opacity="0"></use></g></g><g><use xlink:href="#b4wy4rEcCR" opacity="1" fill="#f9d9c0" fill-opacity="1"></use><g><use xlink:href="#b4wy4rEcCR" opacity="1" fill-opacity="0" stroke="#000000" stroke-width="1" stroke-opacity="0"></use></g></g><g><use xlink:href="#eudK4LZWm" opacity="1" fill="#000000" fill-opacity="0"></use><g><use xlink:href="#eudK4LZWm" opacity="1" fill-opacity="0" stroke="#303030" stroke-width="0.75" stroke-opacity="1"></use></g></g><g><use xlink:href="#f10PzVgt8C" opacity="1" fill="#000000" fill-opacity="0"></use><g><use xlink:href="#f10PzVgt8C" opacity="1" fill-opacity="0" stroke="#303030" stroke-width="0.75" stroke-opacity="1"></use></g></g><g><use xlink:href="#b2y3ki0cVP" opacity="1" fill="#000000" fill-opacity="0"></use><g><use xlink:href="#b2y3ki0cVP" opacity="1" fill-opacity="0" stroke="#303030" stroke-width="0.75" stroke-opacity="1"></use></g></g><g><use xlink:href="#dqsajEqoh" opacity="1" fill="#000000" fill-opacity="0"></use><g><use xlink:href="#dqsajEqoh" opacity="1" fill-opacity="0" stroke="#303030" stroke-width="0.75" stroke-opacity="1"></use></g></g><g><use xlink:href="#csMhzldcg" opacity="1" fill="#000000" fill-opacity="0"></use><g><use xlink:href="#csMhzldcg" opacity="1" fill-opacity="0" stroke="#303030" stroke-width="0.75" stroke-opacity="1"></use></g></g><g><use xlink:href="#f4ayasmi6D" opacity="1" fill="#000000" fill-opacity="0"></use><g><use xlink:href="#f4ayasmi6D" opacity="1" fill-opacity="0" stroke="#303030" stroke-width="0.75" stroke-opacity="1"></use></g></g><g><use xlink:href="#c1tquwZBs" opacity="1" fill="#000000" fill-opacity="0"></use><g><use xlink:href="#c1tquwZBs" opacity="1" fill-opacity="0" stroke="#303030" stroke-width="0.75" stroke-opacity="1"></use></g></g><g><use xlink:href="#abnLFItNM" opacity="1" fill="#000000" fill-opacity="0"></use><g><use xlink:href="#abnLFItNM" opacity="1" fill-opacity="0" stroke="#303030" stroke-width="0.75" stroke-opacity="1"></use></g></g><g><use xlink:href="#brawrHKfP" opacity="1" fill="#ffd24a" fill-opacity="1"></use><g><use xlink:href="#brawrHKfP" opacity="1" fill-opacity="0" stroke="#000000" stroke-width="1" stroke-opacity="0"></use></g></g><g><use xlink:href="#bGq56Mbn2" opacity="1" fill="#ffd24a" fill-opacity="1"></use><g><use xlink:href="#bGq56Mbn2" opacity="1" fill-opacity="0" stroke="#000000" stroke-width="1" stroke-opacity="0"></use></g></g><g><use xlink:href="#cdZZouEN8" opacity="1" fill="#f9d9c0" fill-opacity="1"></use><g><use xlink:href="#cdZZouEN8" opacity="1" fill-opacity="0" stroke="#000000" stroke-width="1" stroke-opacity="0"></use></g></g><g><use xlink:href="#eaMw98lJB" opacity="1" fill="#f9d9c0" fill-opacity="1"></use><g><use xlink:href="#eaMw98lJB" opacity="1" fill-opacity="0" stroke="#000000" stroke-width="1" stroke-opacity="0"></use></g></g><g><use xlink:href="#annwi3aBv" opacity="1" fill="#f43735" fill-opacity="1"></use><g><use xlink:href="#annwi3aBv" opacity="1" fill-opacity="0" stroke="#000000" stroke-width="1" stroke-opacity="0"></use></g></g><g><use xlink:href="#fvqtk4WAF" opacity="1" fill="#ffffff" fill-opacity="1"></use><g><use xlink:href="#fvqtk4WAF" opacity="1" fill-opacity="0" stroke="#000000" stroke-width="1" stroke-opacity="0"></use></g></g><g><use xlink:href="#b2ROT4UHjP" opacity="1" fill="#ffffff" fill-opacity="1"></use><g><use xlink:href="#b2ROT4UHjP" opacity="1" fill-opacity="0" stroke="#000000" stroke-width="1" stroke-opacity="0"></use></g></g><g><use xlink:href="#b1VTJNU2st" opacity="1" fill="#f9d9c0" fill-opacity="1"></use><g><use xlink:href="#b1VTJNU2st" opacity="1" fill-opacity="0" stroke="#000000" stroke-width="1" stroke-opacity="0"></use></g></g><g><use xlink:href="#c37fzVD1hp" opacity="1" fill="#000000" fill-opacity="0"></use><g><use xlink:href="#c37fzVD1hp" opacity="1" fill-opacity="0" stroke="#303030" stroke-width="0.75" stroke-opacity="1"></use></g></g><g><use xlink:href="#a5Zc5vvAqx" opacity="1" fill="#000000" fill-opacity="0"></use><g><use xlink:href="#a5Zc5vvAqx" opacity="1" fill-opacity="0" stroke="#303030" stroke-width="0.75" stroke-opacity="1"></use></g></g><g><use xlink:href="#a6rpGOpwr" opacity="1" fill="#000000" fill-opacity="0"></use><g><use xlink:href="#a6rpGOpwr" opacity="1" fill-opacity="0" stroke="#303030" stroke-width="0.75" stroke-opacity="1"></use></g></g><g><use xlink:href="#kZLGGWF0C" opacity="1" fill="#000000" fill-opacity="0"></use><g><use xlink:href="#kZLGGWF0C" opacity="1" fill-opacity="0" stroke="#303030" stroke-width="0.75" stroke-opacity="1"></use></g></g><g><use xlink:href="#aaAuU5H8l" opacity="1" fill="#000000" fill-opacity="0"></use><g><use xlink:href="#aaAuU5H8l" opacity="1" fill-opacity="0" stroke="#303030" stroke-width="0.75" stroke-opacity="1"></use></g></g><g><use xlink:href="#b4MQolYXXb" opacity="1" fill="#000000" fill-opacity="0"></use><g><use xlink:href="#b4MQolYXXb" opacity="1" fill-opacity="0" stroke="#303030" stroke-width="0.75" stroke-opacity="1"></use></g></g><g><use xlink:href="#b2AnpqBHuQ" opacity="1" fill="#303030" fill-opacity="1"></use><g><use xlink:href="#b2AnpqBHuQ" opacity="1" fill-opacity="0" stroke="#000000" stroke-width="1" stroke-opacity="0"></use></g></g><g><use xlink:href="#a4L5Vxka4X" opacity="1" fill="#000000" fill-opacity="0"></use><g><use xlink:href="#a4L5Vxka4X" opacity="1" fill-opacity="0" stroke="#303030" stroke-width="0.75" stroke-opacity="1"></use></g></g><g><use xlink:href="#ay9XTciJX" opacity="1" fill="#000000" fill-opacity="0"></use><g><use xlink:href="#ay9XTciJX" opacity="1" fill-opacity="0" stroke="#303030" stroke-width="0.75" stroke-opacity="1"></use></g></g><g><use xlink:href="#i5WUTMrWKy" opacity="1" fill="#000000" fill-opacity="0"></use><g><use xlink:href="#i5WUTMrWKy" opacity="1" fill-opacity="0" stroke="#303030" stroke-width="0.75" stroke-opacity="1"></use></g></g><g><use xlink:href="#a2UYk5skci" opacity="1" fill="#000000" fill-opacity="0"></use><g><use xlink:href="#a2UYk5skci" opacity="1" fill-opacity="0" stroke="#303030" stroke-width="0.75" stroke-opacity="1"></use></g></g><g><use xlink:href="#aXBbQLyXM" opacity="1" fill="#000000" fill-opacity="0"></use><g><use xlink:href="#aXBbQLyXM" opacity="1" fill-opacity="0" stroke="#303030" stroke-width="0.75" stroke-opacity="1"></use></g></g><g><use xlink:href="#adBXBNWWO" opacity="1" fill="#000000" fill-opacity="0"></use><g><use xlink:href="#adBXBNWWO" opacity="1" fill-opacity="0" stroke="#303030" stroke-width="0.75" stroke-opacity="1"></use></g></g><g><use xlink:href="#a1rCyokyES" opacity="1" fill="#000000" fill-opacity="0"></use><g><use xlink:href="#a1rCyokyES" opacity="1" fill-opacity="0" stroke="#303030" stroke-width="0.75" stroke-opacity="1"></use></g></g></g></g></svg>