<?xml version="1.0" ?><svg enable-background="new 0 0 24 24" id="Layer_1" version="1.1" viewBox="0 0 24 24" xml:space="preserve" xmlns="http://www.w3.org/2000/svg" xmlns:xlink="http://www.w3.org/1999/xlink"><path d="M23.8999023,7.2004395l-3-4C20.8056641,3.0744629,20.6572266,3.0002441,20.5,3.0002441h-17  c-0.1572266,0-0.3056641,0.0742188-0.3999023,0.2001953l-3,4c-0.1425781,0.1894531-0.1318359,0.4536133,0.0253906,0.6308594  l11.5,12.9995117C11.7202148,20.9382324,11.8569336,20.9997559,12,20.9997559s0.2797852-0.0615234,0.3745117-0.1689453  l11.5-12.9995117C24.0317383,7.6540527,24.0424805,7.3898926,23.8999023,7.2004395z M3.0908203,6.2131348  C2.4545288,7.1203613,2.1677246,7.8859863,2.0754395,8.5266113L1.1445313,7.4743652L3.75,4.0002441h2.4049683  C4.9439697,4.4765015,3.8170776,5.1774292,3.0908203,6.2131348z M12,19.7453613l-2.4008179-2.7138672  c0.0609741,0.0003662,0.1152344,0.0014648,0.1796265,0.0014648c1.3451538,0,3.406311-0.0984497,5.1378784-0.5845947L12,19.7453613z   M17.0175781,13.8688965c-0.3411865,1.2546387-2.6988525,1.8584595-5.1264648,2.071167  C11.6450806,15.0198975,10.8913574,13.0002441,9,13.0002441c-1.1663818,0-1.835022,0.5175171-2.1724854,0.8981323  l-1.7839966-2.0166016c0.4428101,0.0782471,0.9277954,0.1184692,1.4511108,0.1184692c0.0019531,0,0.0039063,0,0.0058594,0  c7.6933594-0.0117188,9.9238281,0.7993164,10.4399414,1.4746094C17.0371094,13.6008301,17.0595703,13.7150879,17.0175781,13.8688965  z M20.6497192,9.9677734C19.5603027,8.005188,16.4537964,8.0002441,12,8.0002441c-3,0-3-1.0131836-3-1.5  c0-1.1352539,0.5209961-2.4902344,3.0019531-2.5h0.0742188c3.9907227,0.015625,4.9125977,2.5517578,4.9492188,2.6572266  C17.0932617,6.8620605,17.284668,7.0002441,17.5,7.0002441h3c0.2763672,0,0.5-0.2236328,0.5-0.5v-1.499939l1.8554688,2.4740601  L20.6497192,9.9677734z" fill="#303C42"/><g/><g/><g/><g/><g/><g/><g/><g/><g/><g/><g/><g/><g/><g/><g/></svg>