<?xml version="1.0" ?><svg enable-background="new 0 0 24 24" id="Layer_1" version="1.1" viewBox="0 0 24 24" xml:space="preserve" xmlns="http://www.w3.org/2000/svg" xmlns:xlink="http://www.w3.org/1999/xlink"><g><path d="M21.7626953,15.074707c-0.1474609-0.0922852-0.3320313-0.0996094-0.4863281-0.0219727L17,17.190918V7.5v-7   C17,0.2236328,16.7763672,0,16.5,0h-3C13.2236328,0,13,0.2236328,13,0.5v7C13,7.7763672,13.2236328,8,13.5,8h1.5554199   L13.71875,9.0512695c-0.1704102,0.1342773-0.2353516,0.362793-0.1601563,0.5664063l0.543457,1.4702148l-0.4067383-0.1728516   c-0.1538086-0.065918-0.3320313-0.0493164-0.4711914,0.043457C13.0839844,11.0512695,13,11.2075195,13,11.3754883V23.5   c0,0.1733398,0.0898438,0.3339844,0.2373047,0.425293C13.3173828,23.9750977,13.4086914,24,13.5,24   c0.0766602,0,0.152832-0.0175781,0.2236328-0.0527344l8-4C21.8930664,19.8623047,22,19.6894531,22,19.5v-4   C22,15.3266602,21.9101563,15.1660156,21.7626953,15.074707z" fill="#303C42"/><path d="M11.5,0h-7C4.3393555,0,4.1884766,0.0771484,4.0942383,0.2075195   c-0.09375,0.1303711-0.1196289,0.2983398-0.0683594,0.4506836l1,3C5.09375,3.8623047,5.284668,4,5.5,4H8v3.5V16H6v-4.5   c0-0.1845703-0.1015625-0.3540039-0.2641602-0.440918c-0.1616211-0.0869141-0.359375-0.0771484-0.5131836,0.0249023l-3,2   C2.0834961,13.1767578,2,13.3330078,2,13.5V19c0,1.1030273,0.8969727,2,2,2h6c1.1030273,0,2-0.8969727,2-2v-7.6245117   c0-0.1679688-0.0839844-0.3242188-0.2241211-0.4169922c-0.140625-0.0927734-0.3188477-0.109375-0.4711914-0.043457   l-0.4067383,0.1728516l0.543457-1.4702148c0.0751953-0.2036133,0.0102539-0.4321289-0.1601563-0.5664063L9.9445801,8H11.5   C11.7763672,8,12,7.7763672,12,7.5v-7C12,0.2236328,11.7763672,0,11.5,0z" fill="#303C42"/></g><g/><g/><g/><g/><g/><g/><g/><g/><g/><g/><g/><g/><g/><g/><g/></svg>