<?xml version="1.0" ?><svg style="enable-background:new 0 0 48 48;" version="1.1" viewBox="0 0 48 48" xml:space="preserve" xmlns="http://www.w3.org/2000/svg" xmlns:xlink="http://www.w3.org/1999/xlink"><g id="Icons"><g><path d="M16.61865,18.51026c0,0-0.1643,4.0867-0.2244,5.1821c-0.0601,1.0954-2.0659,3.3201-1.2473,5.2577    c0,0,5.1214,5.6164,5.1496,7.697c0,0,5.1564,2.3402,7.4558-0.5464c0,0,0.6349-1.77,2.4814-5.5272    c1.8465-3.7573,3.4123-8.1171,2.92-8.9604c-0.4924-0.8434-8.181-10.6483-8.181-10.6483L16.61865,18.51026z" style="fill:#F9D9C0;"/><path d="M18.11305,20.35806c0,0,0.1822-2.9395,0.5043-4.8013l5.4808-2.716l6.2209,2.6399    c0,0-1.2143,4.0537-0.4401,4.8774c0,0-4.3209,0.41-5.9847,2.9433C23.89425,23.30136,20.78815,20.11176,18.11305,20.35806z" style="fill:#FFD24A;"/><path d="M18.11475,20.35766c0.8316-1.5264,1.6632-3.18,1.722-3.767l4.1583-2.6614l4.1682,2.6614    c0.0489,0.587,0.8806,2.2406,1.7123,3.767c0.8415,1.5459,1.6731,2.9451,1.6731,2.9451s0.4697,2.8864-0.5382,5.5379    c-0.8903,2.3287-2.7591,5.0781-3.2581,7.26c-0.0685,0.3033-0.1174,0.5969-0.1273,0.8709    c-0.1076,2.2797,2.0743,5.0291,6.2131,4.2953c4.1291-0.7436,4.6672-5.4108,4.6672-5.4108    c-3.6985,5.6065-6.1446,1.4774-6.7512,0.6752c-0.6067-0.8023,2.2503-2.3874,3.3854-3.2582    c1.1447-0.8709,0.8806-3.5909,0.8806-4.4324c0-0.8414,0.1663-3.493,0.6653-5.1368c0.5088-1.6535-0.4696-4.1974-1.1056-4.9019    c-0.636-0.7046-1.6144-3.3268-1.6144-3.3268c-0.5382-1.7122-1.9765-3.992-3.1213-7.1132s-5.9098-1.1154-5.9098-1.1154    l-0.9393,0.4795l-0.9392-0.4795c0,0-4.765-2.0058-5.9098,1.1154s-2.5831,5.401-3.1212,7.1132c0,0-0.9785,2.6222-1.6144,3.3268    c-0.6361,0.7045-1.6144,3.2484-1.1057,4.9019c0.499,1.6438,0.6751,4.2954,0.6751,5.1368c0,0.8415-0.274,3.5615,0.8708,4.4324    c1.135,0.8708,3.992,2.4559,3.3854,3.2582c-0.5968,0.8022-3.0527,4.9313-6.7414-0.6752c0,0,0.5284,4.6672,4.6671,5.4108    c4.1291,0.7338,6.3109-2.0156,6.2033-4.2953c-0.0097-0.186-0.0293-0.3816-0.0685-0.5871    c-0.4011-2.2211-2.3873-5.1074-3.3169-7.5438c-1.0077-2.6515-0.5381-5.5379-0.5381-5.5379S17.27325,21.90356,18.11475,20.35766" style="fill:#464747;"/><g><g><g><g><path d="M24.06735,29.82816c-0.041,0-0.082-0.0068-0.1211-0.0205l-1.334-0.4561        c-0.1963-0.0664-0.3008-0.2802-0.2334-0.4755c0.0654-0.1963,0.2783-0.3018,0.4756-0.2334l1.2041,0.4111l1.0449-0.4063        c0.1924-0.0761,0.4111,0.0215,0.4854,0.2139c0.0752,0.1924-0.0205,0.4102-0.2139,0.4854l-1.1719,0.456        C24.16015,29.81936,24.11325,29.82816,24.06735,29.82816z" style="fill:#D6B6A1;"/></g></g></g><path d="M26.93755,32.27236c-0.5935-0.0269-1.5877-0.4585-1.5877-0.4585     c-0.804-0.5425-1.4026-0.0539-1.4026-0.0539c-0.5665-0.5395-1.4565,0-1.4565,0c-0.3507,0.2966-1.3794,0.4645-1.3794,0.4645     l2.9131,0.6113L26.93755,32.27236z" style="fill:#D6B6A1;"/><g><path d="M24.14545,34.14166c-0.79,0-1.4863-0.2276-1.5303-0.2422      c-0.1963-0.0645-0.3027-0.2764-0.2373-0.4736c0.0645-0.1963,0.2764-0.3028,0.4737-0.2383      c0.0127,0.0058,1.3798,0.4492,2.2187,0.0215c0.1826-0.0918,0.4102-0.0196,0.5039,0.166      c0.0928,0.1845,0.0195,0.4101-0.166,0.5039C25.01855,34.07616,24.56835,34.14166,24.14545,34.14166z" style="fill:#D6B6A1;"/></g></g><polygon points="24.00545,15.97726 24.54675,17.64316 26.29845,17.64316 24.88135,18.67266     25.42265,20.33866 24.00545,19.30906 22.58835,20.33866 23.12965,18.67266 21.71255,17.64316 23.46425,17.64316   " style="fill:#F43735;"/><path d="M16.31095,36.19486c0,0,0.6613,1.7902-0.6203,2.6728c0,0,0.5827-1.032,0.1825-1.8338    C15.87315,37.03386,16.25405,36.52056,16.31095,36.19486z" style="fill:#282828;"/><path d="M31.67385,36.26786c0,0-0.3359,1.7376,1.0154,2.5998c0,0-0.5534-0.5251-0.3668-1.5751    C32.32245,37.29256,31.68225,36.50926,31.67385,36.26786z" style="fill:#282828;"/><path d="M12.41045,18.80196c0,0,2.375-1.3721,3.0422-3.5445c0,0-1.2352,1.7037-2.1926,2.0544    L12.41045,18.80196z" style="fill:#282828;"/></g></g></svg>